<svg width="432" height="93" viewBox="0 0 432 93" fill="none" xmlns="http://www.w3.org/2000/svg">
<path d="M11 82.8C11.5973 82.8 12.1947 82.2027 12.792 81.008C13.3893 79.8133 13.688 77.8507 13.688 75.12V13.68C13.688 10.9493 13.3893 9.02933 12.792 7.92C12.1947 6.72533 11.5973 6.08533 11 6H51.192C58.7013 6 65.016 6.72533 70.136 8.176C75.256 9.62667 79.352 11.632 82.424 14.192C85.5813 16.752 87.9707 19.696 89.592 23.024C91.2133 26.2667 92.28 29.7227 92.792 33.392C93.3893 37.0613 93.688 40.7733 93.688 44.528C93.688 47.9413 93.3893 51.4827 92.792 55.152C92.28 58.736 91.1707 62.192 89.464 65.52C87.8427 68.7627 85.4533 71.7067 82.296 74.352C79.224 76.912 75.128 78.96 70.008 80.496C64.9733 82.032 58.7013 82.8 51.192 82.8H11ZM38.52 68.592H43.768C51.1067 68.592 56.9947 67.9947 61.432 66.8C65.8693 65.52 69.112 63.216 71.16 59.888C73.208 56.56 74.232 51.7387 74.232 45.424V43.12C74.232 36.464 73.2933 31.5573 71.416 28.4C69.5387 25.1573 66.3813 23.024 61.944 22C57.5067 20.976 51.448 20.464 43.768 20.464H38.52C36.0453 20.464 34.552 20.6347 34.04 20.976C33.6133 21.232 33.4 22.256 33.4 24.048V64.752C33.4 66.6293 33.6133 67.7387 34.04 68.08C34.552 68.4213 36.0453 68.592 38.52 68.592Z" fill="white"/>
<path d="M105.378 82.8C105.975 82.8 106.53 82.2027 107.042 81.008C107.639 79.8133 107.938 77.8507 107.938 75.12V13.68C107.938 10.9493 107.639 9.02933 107.042 7.92C106.445 6.72533 105.847 6.08533 105.25 6H147.234C154.743 6 160.717 6.93867 165.154 8.816C169.677 10.6933 172.919 13.4667 174.882 17.136C176.93 20.72 177.954 25.2 177.954 30.576C177.954 34.416 177.229 37.8293 175.778 40.816C174.413 43.8027 172.493 46.2347 170.018 48.112C167.543 49.9893 164.77 51.3547 161.698 52.208V52.592C165.111 53.9573 168.695 56.6453 172.45 60.656C176.205 64.5813 179.575 68.976 182.562 73.84C184.525 76.9973 186.317 79.2587 187.938 80.624C189.559 81.9893 190.797 82.7147 191.65 82.8H159.394C160.418 82.7147 161.229 82.16 161.826 81.136C162.509 80.0267 162.295 78.2347 161.186 75.76C159.394 71.664 157.218 68.1227 154.658 65.136C152.098 62.1493 149.111 59.888 145.698 58.352C142.37 56.7307 138.53 55.92 134.178 55.92H132.77C130.125 55.92 128.589 56.1333 128.162 56.56C127.735 56.9867 127.522 58.0533 127.522 59.76V75.12C127.522 77.8507 127.821 79.8133 128.418 81.008C129.015 82.2027 129.613 82.8 130.21 82.8H105.378ZM132.77 42.992H143.266C148.642 42.992 152.525 42.0533 154.914 40.176C157.303 38.2133 158.498 35.0133 158.498 30.576C158.498 28.6133 158.071 26.864 157.218 25.328C156.365 23.792 154.914 22.5973 152.866 21.744C150.903 20.8907 148.13 20.464 144.546 20.464H132.77C130.125 20.464 128.589 20.592 128.162 20.848C127.735 21.104 127.522 22.0853 127.522 23.792V39.536C127.522 41.2427 127.735 42.2667 128.162 42.608C128.589 42.864 130.125 42.992 132.77 42.992Z" fill="white"/>
<path d="M191.344 82.8C191.771 82.8 192.411 82.2027 193.264 81.008C194.203 79.8133 195.269 77.808 196.464 74.992C197.061 73.712 198 71.536 199.28 68.464C200.645 65.3067 202.181 61.68 203.888 57.584C205.68 53.4027 207.515 49.0507 209.392 44.528C211.355 40.0053 213.189 35.6533 214.896 31.472C216.688 27.2907 218.224 23.6213 219.504 20.464C220.869 17.3067 221.808 15.0453 222.32 13.68C223.429 10.9493 224.027 8.98667 224.112 7.792C224.197 6.59733 224.027 6 223.6 6H251.504C251.163 6 251.035 6.59733 251.12 7.792C251.205 8.90133 251.803 10.864 252.912 13.68C253.424 15.0453 254.32 17.3067 255.6 20.464C256.88 23.536 258.373 27.1627 260.08 31.344C261.787 35.44 263.579 39.7493 265.456 44.272C267.333 48.7947 269.125 53.1467 270.832 57.328C272.539 61.424 274.075 65.0507 275.44 68.208C276.805 71.3653 277.787 73.6267 278.384 74.992C279.664 77.808 280.901 79.8133 282.096 81.008C283.291 82.2027 284.187 82.8 284.784 82.8H255.728C256.411 82.7147 256.965 82.0747 257.392 80.88C257.904 79.6 257.904 77.6373 257.392 74.992C257.307 74.3947 257.221 73.9253 257.136 73.584C257.051 73.1573 256.88 72.56 256.624 71.792C256.283 70.512 255.899 69.616 255.472 69.104C255.045 68.5067 254.32 68.1653 253.296 68.08C252.357 67.9947 250.779 67.952 248.56 67.952H226.544C224.24 67.952 222.533 68.0373 221.424 68.208C220.315 68.2933 219.547 68.592 219.12 69.104C218.693 69.616 218.352 70.4693 218.096 71.664C218.011 72.0907 217.883 72.6453 217.712 73.328C217.627 74.0107 217.541 74.5653 217.456 74.992C216.859 77.7227 216.688 79.6853 216.944 80.88C217.285 82.0747 217.712 82.7147 218.224 82.8H191.344ZM229.872 53.872H244.848C247.323 53.872 248.688 53.6587 248.944 53.232C249.2 52.8053 249.072 51.8667 248.56 50.416C247.451 47.6853 246.341 44.912 245.232 42.096C244.123 39.1947 243.056 36.3787 242.032 33.648C241.093 30.9173 240.24 28.4 239.472 26.096C238.789 23.7067 238.192 21.7013 237.68 20.08H237.424C236.229 23.2373 234.992 26.5653 233.712 30.064C232.432 33.5627 231.237 36.8053 230.128 39.792C229.019 42.7787 228.123 45.2533 227.44 47.216C226.757 49.0933 226.416 50.032 226.416 50.032C225.819 51.3973 225.605 52.3787 225.776 52.976C225.947 53.5733 227.312 53.872 229.872 53.872Z" fill="white"/>
<path d="M305.118 82.8C305.715 82.6293 306.099 81.9893 306.27 80.88C306.441 79.6853 306.057 77.808 305.118 75.248C304.777 74.3093 304.009 72.3893 302.814 69.488C301.705 66.5867 300.297 63.088 298.59 58.992C296.969 54.8107 295.219 50.416 293.342 45.808C291.465 41.2 289.63 36.72 287.838 32.368C286.131 28.016 284.595 24.176 283.23 20.848C281.865 17.52 280.841 15.1307 280.158 13.68C279.049 10.9493 277.854 9.02933 276.574 7.92C275.294 6.72533 274.313 6.08533 273.63 6H302.174C301.577 6.08533 301.193 6.72533 301.022 7.92C300.937 9.11466 301.363 11.12 302.302 13.936C302.729 15.0453 303.369 16.9653 304.222 19.696C305.161 22.3413 306.227 25.5413 307.422 29.296C308.702 32.9653 310.025 36.9333 311.39 41.2C312.841 45.4667 314.249 49.776 315.614 54.128C317.065 58.48 318.43 62.576 319.71 66.416H319.966C320.99 62.6613 322.057 58.6933 323.166 54.512C324.275 50.2453 325.385 46.0213 326.494 41.84C327.689 37.5733 328.755 33.5627 329.694 29.808C330.718 26.0533 331.614 22.8107 332.382 20.08C333.15 17.264 333.705 15.216 334.046 13.936C334.814 11.12 335.113 9.11466 334.942 7.92C334.771 6.72533 334.473 6.08533 334.046 6H366.302C365.79 6 365.449 6.59733 365.278 7.792C365.107 8.98667 365.449 11.0773 366.302 14.064C366.643 15.1733 367.198 17.0933 367.966 19.824C368.734 22.5547 369.587 25.7973 370.526 29.552C371.55 33.2213 372.617 37.1893 373.726 41.456C374.921 45.6373 376.073 49.904 377.182 54.256C378.377 58.5227 379.486 62.576 380.51 66.416H380.766C382.131 62.576 383.539 58.5227 384.99 54.256C386.441 49.904 387.891 45.5947 389.342 41.328C390.793 37.0613 392.158 33.0933 393.438 29.424C394.718 25.6693 395.785 22.4267 396.638 19.696C397.577 16.9653 398.217 15.0453 398.558 13.936C399.497 11.0347 399.838 8.98667 399.582 7.792C399.411 6.59733 399.07 6 398.558 6H426.974C426.377 6.08533 425.523 6.768 424.414 8.048C423.305 9.24266 422.025 11.2053 420.574 13.936C419.891 15.216 418.867 17.4347 417.502 20.592C416.137 23.664 414.558 27.2907 412.766 31.472C410.974 35.6533 409.139 40.0053 407.262 44.528C405.385 48.9653 403.593 53.2747 401.886 57.456C400.265 61.552 398.857 65.1787 397.662 68.336C396.467 71.408 395.657 73.584 395.23 74.864C394.377 77.68 394.035 79.6853 394.206 80.88C394.377 82.0747 394.718 82.7147 395.23 82.8H365.662C366.174 82.7147 366.515 82.0747 366.686 80.88C366.857 79.6853 366.515 77.68 365.662 74.864C365.321 73.7547 364.723 71.792 363.87 68.976C363.102 66.0747 362.163 62.6613 361.054 58.736C360.03 54.7253 358.878 50.4587 357.598 45.936C356.318 41.328 355.038 36.72 353.758 32.112C352.478 27.4187 351.283 22.9813 350.174 18.8H349.918C348.809 22.9813 347.614 27.4187 346.334 32.112C345.054 36.72 343.817 41.328 342.622 45.936C341.427 50.544 340.275 54.8533 339.166 58.864C338.142 62.7893 337.246 66.16 336.478 68.976C335.71 71.792 335.155 73.7547 334.814 74.864C334.046 77.5947 333.747 79.6 333.918 80.88C334.089 82.0747 334.387 82.7147 334.814 82.8H305.118Z" fill="white"/>
<g filter="url(#filter0_d_12246_4043)">
<path d="M15 84.8C15.5973 84.8 16.1947 84.2027 16.792 83.008C17.3893 81.8133 17.688 79.8507 17.688 77.12V15.68C17.688 12.9493 17.3893 11.0293 16.792 9.92C16.1947 8.72533 15.5973 8.08533 15 8H55.192C62.7013 8 69.016 8.72533 74.136 10.176C79.256 11.6267 83.352 13.632 86.424 16.192C89.5813 18.752 91.9707 21.696 93.592 25.024C95.2133 28.2667 96.28 31.7227 96.792 35.392C97.3893 39.0613 97.688 42.7733 97.688 46.528C97.688 49.9413 97.3893 53.4827 96.792 57.152C96.28 60.736 95.1707 64.192 93.464 67.52C91.8427 70.7627 89.4533 73.7067 86.296 76.352C83.224 78.912 79.128 80.96 74.008 82.496C68.9733 84.032 62.7013 84.8 55.192 84.8H15ZM42.52 70.592H47.768C55.1067 70.592 60.9947 69.9947 65.432 68.8C69.8693 67.52 73.112 65.216 75.16 61.888C77.208 58.56 78.232 53.7387 78.232 47.424V45.12C78.232 38.464 77.2933 33.5573 75.416 30.4C73.5387 27.1573 70.3813 25.024 65.944 24C61.5067 22.976 55.448 22.464 47.768 22.464H42.52C40.0453 22.464 38.552 22.6347 38.04 22.976C37.6133 23.232 37.4 24.256 37.4 26.048V66.752C37.4 68.6293 37.6133 69.7387 38.04 70.08C38.552 70.4213 40.0453 70.592 42.52 70.592Z" fill="#4DD5BC"/>
<path d="M109.378 84.8C109.975 84.8 110.53 84.2027 111.042 83.008C111.639 81.8133 111.938 79.8507 111.938 77.12V15.68C111.938 12.9493 111.639 11.0293 111.042 9.92C110.445 8.72533 109.847 8.08533 109.25 8H151.234C158.743 8 164.717 8.93867 169.154 10.816C173.677 12.6933 176.919 15.4667 178.882 19.136C180.93 22.72 181.954 27.2 181.954 32.576C181.954 36.416 181.229 39.8293 179.778 42.816C178.413 45.8027 176.493 48.2347 174.018 50.112C171.543 51.9893 168.77 53.3547 165.698 54.208V54.592C169.111 55.9573 172.695 58.6453 176.45 62.656C180.205 66.5813 183.575 70.976 186.562 75.84C188.525 78.9973 190.317 81.2587 191.938 82.624C193.559 83.9893 194.797 84.7147 195.65 84.8H163.394C164.418 84.7147 165.229 84.16 165.826 83.136C166.509 82.0267 166.295 80.2347 165.186 77.76C163.394 73.664 161.218 70.1227 158.658 67.136C156.098 64.1493 153.111 61.888 149.698 60.352C146.37 58.7307 142.53 57.92 138.178 57.92H136.77C134.125 57.92 132.589 58.1333 132.162 58.56C131.735 58.9867 131.522 60.0533 131.522 61.76V77.12C131.522 79.8507 131.821 81.8133 132.418 83.008C133.015 84.2027 133.613 84.8 134.21 84.8H109.378ZM136.77 44.992H147.266C152.642 44.992 156.525 44.0533 158.914 42.176C161.303 40.2133 162.498 37.0133 162.498 32.576C162.498 30.6133 162.071 28.864 161.218 27.328C160.365 25.792 158.914 24.5973 156.866 23.744C154.903 22.8907 152.13 22.464 148.546 22.464H136.77C134.125 22.464 132.589 22.592 132.162 22.848C131.735 23.104 131.522 24.0853 131.522 25.792V41.536C131.522 43.2427 131.735 44.2667 132.162 44.608C132.589 44.864 134.125 44.992 136.77 44.992Z" fill="#4DD5BC"/>
<path d="M195.344 84.8C195.771 84.8 196.411 84.2027 197.264 83.008C198.203 81.8133 199.269 79.808 200.464 76.992C201.061 75.712 202 73.536 203.28 70.464C204.645 67.3067 206.181 63.68 207.888 59.584C209.68 55.4027 211.515 51.0507 213.392 46.528C215.355 42.0053 217.189 37.6533 218.896 33.472C220.688 29.2907 222.224 25.6213 223.504 22.464C224.869 19.3067 225.808 17.0453 226.32 15.68C227.429 12.9493 228.027 10.9867 228.112 9.792C228.197 8.59733 228.027 8 227.6 8H255.504C255.163 8 255.035 8.59733 255.12 9.792C255.205 10.9013 255.803 12.864 256.912 15.68C257.424 17.0453 258.32 19.3067 259.6 22.464C260.88 25.536 262.373 29.1627 264.08 33.344C265.787 37.44 267.579 41.7493 269.456 46.272C271.333 50.7947 273.125 55.1467 274.832 59.328C276.539 63.424 278.075 67.0507 279.44 70.208C280.805 73.3653 281.787 75.6267 282.384 76.992C283.664 79.808 284.901 81.8133 286.096 83.008C287.291 84.2027 288.187 84.8 288.784 84.8H259.728C260.411 84.7147 260.965 84.0747 261.392 82.88C261.904 81.6 261.904 79.6373 261.392 76.992C261.307 76.3947 261.221 75.9253 261.136 75.584C261.051 75.1573 260.88 74.56 260.624 73.792C260.283 72.512 259.899 71.616 259.472 71.104C259.045 70.5067 258.32 70.1653 257.296 70.08C256.357 69.9947 254.779 69.952 252.56 69.952H230.544C228.24 69.952 226.533 70.0373 225.424 70.208C224.315 70.2933 223.547 70.592 223.12 71.104C222.693 71.616 222.352 72.4693 222.096 73.664C222.011 74.0907 221.883 74.6453 221.712 75.328C221.627 76.0107 221.541 76.5653 221.456 76.992C220.859 79.7227 220.688 81.6853 220.944 82.88C221.285 84.0747 221.712 84.7147 222.224 84.8H195.344ZM233.872 55.872H248.848C251.323 55.872 252.688 55.6587 252.944 55.232C253.2 54.8053 253.072 53.8667 252.56 52.416C251.451 49.6853 250.341 46.912 249.232 44.096C248.123 41.1947 247.056 38.3787 246.032 35.648C245.093 32.9173 244.24 30.4 243.472 28.096C242.789 25.7067 242.192 23.7013 241.68 22.08H241.424C240.229 25.2373 238.992 28.5653 237.712 32.064C236.432 35.5627 235.237 38.8053 234.128 41.792C233.019 44.7787 232.123 47.2533 231.44 49.216C230.757 51.0933 230.416 52.032 230.416 52.032C229.819 53.3973 229.605 54.3787 229.776 54.976C229.947 55.5733 231.312 55.872 233.872 55.872Z" fill="#4DD5BC"/>
<path d="M309.118 84.8C309.715 84.6293 310.099 83.9893 310.27 82.88C310.441 81.6853 310.057 79.808 309.118 77.248C308.777 76.3093 308.009 74.3893 306.814 71.488C305.705 68.5867 304.297 65.088 302.59 60.992C300.969 56.8107 299.219 52.416 297.342 47.808C295.465 43.2 293.63 38.72 291.838 34.368C290.131 30.016 288.595 26.176 287.23 22.848C285.865 19.52 284.841 17.1307 284.158 15.68C283.049 12.9493 281.854 11.0293 280.574 9.92C279.294 8.72533 278.313 8.08533 277.63 8H306.174C305.577 8.08533 305.193 8.72533 305.022 9.92C304.937 11.1147 305.363 13.12 306.302 15.936C306.729 17.0453 307.369 18.9653 308.222 21.696C309.161 24.3413 310.227 27.5413 311.422 31.296C312.702 34.9653 314.025 38.9333 315.39 43.2C316.841 47.4667 318.249 51.776 319.614 56.128C321.065 60.48 322.43 64.576 323.71 68.416H323.966C324.99 64.6613 326.057 60.6933 327.166 56.512C328.275 52.2453 329.385 48.0213 330.494 43.84C331.689 39.5733 332.755 35.5627 333.694 31.808C334.718 28.0533 335.614 24.8107 336.382 22.08C337.15 19.264 337.705 17.216 338.046 15.936C338.814 13.12 339.113 11.1147 338.942 9.92C338.771 8.72533 338.473 8.08533 338.046 8H370.302C369.79 8 369.449 8.59733 369.278 9.792C369.107 10.9867 369.449 13.0773 370.302 16.064C370.643 17.1733 371.198 19.0933 371.966 21.824C372.734 24.5547 373.587 27.7973 374.526 31.552C375.55 35.2213 376.617 39.1893 377.726 43.456C378.921 47.6373 380.073 51.904 381.182 56.256C382.377 60.5227 383.486 64.576 384.51 68.416H384.766C386.131 64.576 387.539 60.5227 388.99 56.256C390.441 51.904 391.891 47.5947 393.342 43.328C394.793 39.0613 396.158 35.0933 397.438 31.424C398.718 27.6693 399.785 24.4267 400.638 21.696C401.577 18.9653 402.217 17.0453 402.558 15.936C403.497 13.0347 403.838 10.9867 403.582 9.792C403.411 8.59733 403.07 8 402.558 8H430.974C430.377 8.08533 429.523 8.768 428.414 10.048C427.305 11.2427 426.025 13.2053 424.574 15.936C423.891 17.216 422.867 19.4347 421.502 22.592C420.137 25.664 418.558 29.2907 416.766 33.472C414.974 37.6533 413.139 42.0053 411.262 46.528C409.385 50.9653 407.593 55.2747 405.886 59.456C404.265 63.552 402.857 67.1787 401.662 70.336C400.467 73.408 399.657 75.584 399.23 76.864C398.377 79.68 398.035 81.6853 398.206 82.88C398.377 84.0747 398.718 84.7147 399.23 84.8H369.662C370.174 84.7147 370.515 84.0747 370.686 82.88C370.857 81.6853 370.515 79.68 369.662 76.864C369.321 75.7547 368.723 73.792 367.87 70.976C367.102 68.0747 366.163 64.6613 365.054 60.736C364.03 56.7253 362.878 52.4587 361.598 47.936C360.318 43.328 359.038 38.72 357.758 34.112C356.478 29.4187 355.283 24.9813 354.174 20.8H353.918C352.809 24.9813 351.614 29.4187 350.334 34.112C349.054 38.72 347.817 43.328 346.622 47.936C345.427 52.544 344.275 56.8533 343.166 60.864C342.142 64.7893 341.246 68.16 340.478 70.976C339.71 73.792 339.155 75.7547 338.814 76.864C338.046 79.5947 337.747 81.6 337.918 82.88C338.089 84.0747 338.387 84.7147 338.814 84.8H309.118Z" fill="#4DD5BC"/>
</g>
<defs>
<filter id="filter0_d_12246_4043" x="0" y="0" width="431.974" height="92.7998" filterUnits="userSpaceOnUse" color-interpolation-filters="sRGB">
<feFlood flood-opacity="0" result="BackgroundImageFix"/>
<feColorMatrix in="SourceAlpha" type="matrix" values="0 0 0 0 0 0 0 0 0 0 0 0 0 0 0 0 0 0 127 0" result="hardAlpha"/>
<feOffset dx="-7"/>
<feGaussianBlur stdDeviation="4"/>
<feComposite in2="hardAlpha" operator="out"/>
<feColorMatrix type="matrix" values="0 0 0 0 0.301961 0 0 0 0 0.835294 0 0 0 0 0.737255 0 0 0 0.5 0"/>
<feBlend mode="normal" in2="BackgroundImageFix" result="effect1_dropShadow_12246_4043"/>
<feBlend mode="normal" in="SourceGraphic" in2="effect1_dropShadow_12246_4043" result="shape"/>
</filter>
</defs>
</svg>
