<svg width="384" height="98" viewBox="0 0 384 98" fill="none" xmlns="http://www.w3.org/2000/svg">
<g filter="url(#filter0_d_12246_4100)">
<path d="M3.9999 89.6001V9.15527e-05H33.3119C42.7839 9.15527e-05 51.1466 1.92009 58.3999 5.76009C65.7386 9.6001 71.4559 14.8908 75.5519 21.6321C79.6479 28.2881 81.6959 36.0108 81.6959 44.8001C81.6959 53.5041 79.6479 61.2268 75.5519 67.9681C71.4559 74.7094 65.7386 80.0001 58.3999 83.8401C51.1466 87.6801 42.7839 89.6001 33.3119 89.6001H3.9999ZM24.6079 70.1441H33.3119C37.2372 70.1441 40.8639 69.5468 44.1919 68.3521C47.5199 67.0721 50.4212 65.3228 52.8959 63.1041C55.3706 60.8001 57.2906 58.1121 58.6559 55.0401C60.0212 51.8828 60.7039 48.4694 60.7039 44.8001C60.7039 41.1308 60.0212 37.7601 58.6559 34.6881C57.2906 31.5308 55.3706 28.8428 52.8959 26.6241C50.4212 24.3201 47.5199 22.5708 44.1919 21.3761C40.8639 20.0961 37.2372 19.4561 33.3119 19.4561H24.6079V70.1441ZM94.2499 89.6001V9.15527e-05H129.45C135.935 9.15527e-05 141.695 1.28009 146.73 3.8401C151.765 6.31476 155.69 9.81343 158.506 14.3361C161.407 18.7734 162.858 23.8934 162.858 29.6961C162.858 35.5841 161.322 40.8321 158.25 45.4401C155.263 49.9628 151.253 53.4188 146.218 55.8081L166.442 89.6001H142.89L125.738 59.5201C125.226 59.5201 124.671 59.5201 124.074 59.5201C123.562 59.5201 123.05 59.5201 122.538 59.5201H114.858V89.6001H94.2499ZM114.858 40.5761H128.81C131.199 40.5761 133.333 40.1068 135.21 39.1681C137.087 38.2294 138.538 36.9494 139.562 35.3281C140.671 33.6214 141.226 31.7441 141.226 29.6961C141.226 26.5388 140.031 23.9361 137.642 21.8881C135.338 19.8401 132.266 18.8161 128.426 18.8161H114.858V40.5761ZM171.32 89.6001L206.136 9.15527e-05H228.152L262.968 89.6001H241.208L234.68 72.5761H199.608L193.08 89.6001H171.32ZM206.264 54.4001H227.896L217.144 25.7281L206.264 54.4001ZM280.432 89.6001L254.32 9.15527e-05H275.312L291.44 57.8561L306.8 9.15527e-05H327.28L342.896 56.8321L358.896 9.15527e-05H379.888L353.648 89.6001H332.144L317.04 32.0001L301.808 89.6001H280.432Z" fill="#FD5B4F"/>
</g>
<defs>
<filter id="filter0_d_12246_4100" x="0" y="0" width="383.888" height="97.6001" filterUnits="userSpaceOnUse" color-interpolation-filters="sRGB">
<feFlood flood-opacity="0" result="BackgroundImageFix"/>
<feColorMatrix in="SourceAlpha" type="matrix" values="0 0 0 0 0 0 0 0 0 0 0 0 0 0 0 0 0 0 127 0" result="hardAlpha"/>
<feOffset dy="4"/>
<feGaussianBlur stdDeviation="2"/>
<feComposite in2="hardAlpha" operator="out"/>
<feColorMatrix type="matrix" values="0 0 0 0 0 0 0 0 0 0 0 0 0 0 0 0 0 0 0.25 0"/>
<feBlend mode="normal" in2="BackgroundImageFix" result="effect1_dropShadow_12246_4100"/>
<feBlend mode="normal" in="SourceGraphic" in2="effect1_dropShadow_12246_4100" result="shape"/>
</filter>
</defs>
</svg>
