<svg width="488" height="101" viewBox="0 0 488 101" fill="none" xmlns="http://www.w3.org/2000/svg">
<g filter="url(#filter0_d_12246_4067)">
<path d="M-0.000377178 92.1602V0.000152588H74.2396C77.4823 0.000152588 80.469 0.810819 83.1996 2.43215C85.9303 4.05348 88.1063 6.22948 89.7276 8.96015C91.349 11.6055 92.1596 14.5495 92.1596 17.7922V74.3682C92.1596 77.6108 91.349 80.5975 89.7276 83.3282C88.1063 85.9735 85.9303 88.1068 83.1996 89.7282C80.469 91.3495 77.4823 92.1602 74.2396 92.1602H-0.000377178ZM18.3036 75.1362H73.4716C73.8983 75.1362 74.2823 75.0082 74.6236 74.7522C74.965 74.4108 75.1356 74.0268 75.1356 73.6002V18.5602C75.1356 18.1335 74.965 17.7922 74.6236 17.5362C74.2823 17.1948 73.8983 17.0242 73.4716 17.0242H18.3036C17.877 17.0242 17.493 17.1948 17.1516 17.5362C16.8956 17.7922 16.7676 18.1335 16.7676 18.5602V73.6002C16.7676 74.0268 16.8956 74.4108 17.1516 74.7522C17.493 75.0082 17.877 75.1362 18.3036 75.1362ZM188.926 92.1602L161.15 59.0082H183.294L207.358 87.4242V92.1602H188.926ZM115.454 92.1602V0.128151H189.694C192.936 0.128151 195.923 0.938817 198.654 2.56015C201.384 4.18148 203.56 6.35748 205.182 9.08815C206.803 11.7335 207.614 14.6775 207.614 17.9202V42.7522C207.614 45.9948 206.803 48.9815 205.182 51.7122C203.56 54.4428 201.384 56.6188 198.654 58.2402C195.923 59.7762 192.936 60.5442 189.694 60.5442L132.35 60.6722V92.1602H115.454ZM133.886 43.5202H188.926C189.352 43.5202 189.736 43.3922 190.078 43.1362C190.419 42.8802 190.59 42.5388 190.59 42.1122V18.5602C190.59 18.1335 190.419 17.7922 190.078 17.5362C189.736 17.1948 189.352 17.0242 188.926 17.0242H133.886C133.459 17.0242 133.075 17.1948 132.734 17.5362C132.478 17.7922 132.35 18.1335 132.35 18.5602V42.1122C132.35 42.5388 132.478 42.8802 132.734 43.1362C133.075 43.3922 133.459 43.5202 133.886 43.5202ZM230.295 92.1602V17.7922C230.295 14.5495 231.105 11.6055 232.727 8.96015C234.348 6.22948 236.481 4.05348 239.127 2.43215C241.857 0.810819 244.844 0.000152588 248.087 0.000152588H304.535C307.777 0.000152588 310.764 0.810819 313.495 2.43215C316.225 4.05348 318.401 6.22948 320.023 8.96015C321.644 11.6055 322.455 14.5495 322.455 17.7922V92.1602H305.431V61.1842H247.191V92.1602H230.295ZM247.191 44.2882H305.431V18.5602C305.431 18.1335 305.26 17.7922 304.919 17.5362C304.577 17.1948 304.193 17.0242 303.767 17.0242H248.727C248.3 17.0242 247.916 17.1948 247.575 17.5362C247.319 17.7922 247.191 18.1335 247.191 18.5602V44.2882ZM372.097 92.1602L338.561 0.000152588H356.481L378.753 60.8002L401.025 0.000152588H417.537L439.809 60.8002L461.953 0.000152588H480.001L446.465 92.1602H433.153L409.217 26.8801L385.409 92.1602H372.097Z" fill="#ED1B76"/>
</g>
<defs>
<filter id="filter0_d_12246_4067" x="0" y="0" width="488.001" height="100.16" filterUnits="userSpaceOnUse" color-interpolation-filters="sRGB">
<feFlood flood-opacity="0" result="BackgroundImageFix"/>
<feColorMatrix in="SourceAlpha" type="matrix" values="0 0 0 0 0 0 0 0 0 0 0 0 0 0 0 0 0 0 127 0" result="hardAlpha"/>
<feOffset dx="4" dy="4"/>
<feGaussianBlur stdDeviation="2"/>
<feComposite in2="hardAlpha" operator="out"/>
<feColorMatrix type="matrix" values="0 0 0 0 0 0 0 0 0 0 0 0 0 0 0 0 0 0 0.25 0"/>
<feBlend mode="normal" in2="BackgroundImageFix" result="effect1_dropShadow_12246_4067"/>
<feBlend mode="normal" in="SourceGraphic" in2="effect1_dropShadow_12246_4067" result="shape"/>
</filter>
</defs>
</svg>
