<svg width="172" height="54" viewBox="0 0 172 54" fill="none" xmlns="http://www.w3.org/2000/svg">
<rect width="172" height="54" rx="10" fill="#BFE5F2"/>
<mask id="mask0_2207_7921" style="mask-type:alpha" maskUnits="userSpaceOnUse" x="20" y="12" width="30" height="30">
<rect x="20" y="12" width="30" height="30" fill="#D9D9D9"/>
</mask>
<g mask="url(#mask0_2207_7921)">
<path d="M45.1875 28.25H31.25C30.8958 28.25 30.599 28.1302 30.3594 27.8906C30.1198 27.651 30 27.3542 30 27C30 26.6458 30.1198 26.349 30.3594 26.1094C30.599 25.8698 30.8958 25.75 31.25 25.75H45.1875L44.125 24.6875C43.875 24.4375 43.7552 24.1458 43.7656 23.8125C43.776 23.4792 43.8958 23.1875 44.125 22.9375C44.375 22.6875 44.6719 22.5573 45.0156 22.5469C45.3594 22.5365 45.6562 22.6562 45.9062 22.9062L49.125 26.125C49.375 26.375 49.5 26.6667 49.5 27C49.5 27.3333 49.375 27.625 49.125 27.875L45.9062 31.0938C45.6562 31.3438 45.3594 31.4635 45.0156 31.4531C44.6719 31.4427 44.375 31.3125 44.125 31.0625C43.8958 30.8125 43.776 30.5208 43.7656 30.1875C43.7552 29.8542 43.875 29.5625 44.125 29.3125L45.1875 28.25ZM38.75 22V18.25H26.25V35.75H38.75V32C38.75 31.6458 38.8698 31.349 39.1094 31.1094C39.349 30.8698 39.6458 30.75 40 30.75C40.3542 30.75 40.651 30.8698 40.8906 31.1094C41.1302 31.349 41.25 31.6458 41.25 32V35.75C41.25 36.4375 41.0052 37.026 40.5156 37.5156C40.026 38.0052 39.4375 38.25 38.75 38.25H26.25C25.5625 38.25 24.974 38.0052 24.4844 37.5156C23.9948 37.026 23.75 36.4375 23.75 35.75V18.25C23.75 17.5625 23.9948 16.974 24.4844 16.4844C24.974 15.9948 25.5625 15.75 26.25 15.75H38.75C39.4375 15.75 40.026 15.9948 40.5156 16.4844C41.0052 16.974 41.25 17.5625 41.25 18.25V22C41.25 22.3542 41.1302 22.651 40.8906 22.8906C40.651 23.1302 40.3542 23.25 40 23.25C39.6458 23.25 39.349 23.1302 39.1094 22.8906C38.8698 22.651 38.75 22.3542 38.75 22Z" fill="#1E7594"/>
</g>
<path d="M61.52 34V20H70.38V22.5H64.26V25.68H69.54V28.12H64.26V31.5H70.46V34H61.52ZM71.9773 34L76.0773 28.28L78.9373 24H82.0573L78.0773 29.58L75.1373 34H71.9773ZM79.1573 34L76.2573 29.58L72.2373 24H75.3573L78.2173 28.28L82.2973 34H79.1573ZM83.8 34V24H86.44V34H83.8ZM85.12 22.38C84.72 22.38 84.3667 22.2333 84.06 21.94C83.7533 21.6333 83.6 21.2733 83.6 20.86C83.6 20.4467 83.7533 20.0933 84.06 19.8C84.3667 19.4933 84.72 19.34 85.12 19.34C85.5333 19.34 85.8867 19.4933 86.18 19.8C86.4867 20.0933 86.64 20.4467 86.64 20.86C86.64 21.2733 86.4867 21.6333 86.18 21.94C85.8867 22.2333 85.5333 22.38 85.12 22.38ZM92.9944 34.24C91.8877 34.24 91.0477 33.9667 90.4744 33.42C89.9144 32.8733 89.6344 32.0933 89.6344 31.08V20.88H92.2744V30.5C92.2744 30.9267 92.3677 31.2533 92.5544 31.48C92.741 31.6933 93.0144 31.8 93.3744 31.8C93.5077 31.8 93.6544 31.7733 93.8144 31.72C93.9744 31.6533 94.141 31.56 94.3144 31.44L95.2344 33.42C94.9144 33.66 94.5544 33.8533 94.1544 34C93.7677 34.16 93.381 34.24 92.9944 34.24ZM88.0144 26.24V24H94.7744V26.24H88.0144ZM106.187 38.26C105.427 38.26 104.754 38.2067 104.167 38.1C103.58 37.9933 103.087 37.8533 102.687 37.68C102.287 37.5067 101.96 37.3333 101.707 37.16L102.747 35.04C102.934 35.1467 103.18 35.2667 103.487 35.4C103.794 35.5467 104.16 35.6667 104.587 35.76C105.014 35.8667 105.507 35.92 106.067 35.92C106.6 35.92 107.067 35.8133 107.467 35.6C107.88 35.4 108.2 35.08 108.427 34.64C108.667 34.2133 108.787 33.6667 108.787 33V24H111.427V32.92C111.427 34.04 111.214 35 110.787 35.8C110.36 36.6133 109.754 37.2267 108.967 37.64C108.194 38.0533 107.267 38.26 106.187 38.26ZM105.667 33.72C104.747 33.72 103.947 33.52 103.267 33.12C102.6 32.72 102.08 32.16 101.707 31.44C101.334 30.72 101.147 29.8667 101.147 28.88C101.147 27.84 101.334 26.94 101.707 26.18C102.08 25.4067 102.6 24.8133 103.267 24.4C103.947 23.9733 104.747 23.76 105.667 23.76C106.467 23.76 107.16 23.9733 107.747 24.4C108.334 24.8133 108.787 25.4067 109.107 26.18C109.427 26.9533 109.587 27.8733 109.587 28.94C109.587 29.9 109.427 30.74 109.107 31.46C108.787 32.18 108.334 32.74 107.747 33.14C107.16 33.5267 106.467 33.72 105.667 33.72ZM106.427 31.5C106.88 31.5 107.274 31.3867 107.607 31.16C107.954 30.92 108.22 30.6 108.407 30.2C108.594 29.7867 108.687 29.32 108.687 28.8C108.687 28.2667 108.587 27.8 108.387 27.4C108.2 27 107.934 26.6867 107.587 26.46C107.254 26.2333 106.86 26.12 106.407 26.12C105.94 26.12 105.527 26.2333 105.167 26.46C104.807 26.6867 104.527 27 104.327 27.4C104.127 27.8 104.02 28.2667 104.007 28.8C104.02 29.32 104.127 29.7867 104.327 30.2C104.527 30.6 104.807 30.92 105.167 31.16C105.54 31.3867 105.96 31.5 106.427 31.5ZM119.739 34L119.659 31.98V28.94C119.659 28.34 119.592 27.8267 119.459 27.4C119.339 26.9733 119.139 26.6467 118.859 26.42C118.592 26.18 118.225 26.06 117.759 26.06C117.332 26.06 116.945 26.1533 116.599 26.34C116.252 26.5267 115.959 26.8133 115.719 27.2L113.399 26.4C113.585 25.9733 113.859 25.56 114.219 25.16C114.579 24.7467 115.045 24.4133 115.619 24.16C116.205 23.8933 116.919 23.76 117.759 23.76C118.772 23.76 119.612 23.9533 120.279 24.34C120.959 24.7267 121.459 25.2733 121.779 25.98C122.112 26.6733 122.272 27.5 122.259 28.46L122.199 34H119.739ZM116.939 34.24C115.739 34.24 114.805 33.9733 114.139 33.44C113.485 32.9067 113.159 32.1533 113.159 31.18C113.159 30.1133 113.512 29.3133 114.219 28.78C114.939 28.2333 115.945 27.96 117.239 27.96H119.779V29.92H118.159C117.292 29.92 116.692 30.0267 116.359 30.24C116.025 30.44 115.859 30.7267 115.859 31.1C115.859 31.3933 115.992 31.6267 116.259 31.8C116.525 31.96 116.899 32.04 117.379 32.04C117.819 32.04 118.205 31.94 118.539 31.74C118.885 31.5267 119.159 31.26 119.359 30.94C119.559 30.6067 119.659 30.2667 119.659 29.92H120.299C120.299 31.28 120.039 32.34 119.519 33.1C119.012 33.86 118.152 34.24 116.939 34.24ZM124.363 34V24H126.843L126.963 25.3C127.269 24.7933 127.663 24.4133 128.143 24.16C128.623 23.8933 129.156 23.76 129.743 23.76C130.556 23.76 131.236 23.9333 131.783 24.28C132.343 24.6267 132.749 25.16 133.003 25.88C133.296 25.2 133.709 24.68 134.243 24.32C134.776 23.9467 135.396 23.76 136.103 23.76C137.276 23.76 138.169 24.1333 138.783 24.88C139.396 25.6133 139.703 26.7467 139.703 28.28V34H137.063V28.88C137.063 28.2 136.989 27.6733 136.843 27.3C136.696 26.9267 136.496 26.66 136.243 26.5C135.989 26.3267 135.689 26.24 135.343 26.24C134.703 26.2267 134.209 26.4333 133.863 26.86C133.516 27.2867 133.343 27.92 133.343 28.76V34H130.703V28.88C130.703 28.2 130.629 27.6733 130.483 27.3C130.349 26.9267 130.149 26.66 129.883 26.5C129.629 26.3267 129.329 26.24 128.983 26.24C128.343 26.2267 127.849 26.4333 127.503 26.86C127.169 27.2867 127.003 27.92 127.003 28.76V34H124.363ZM146.324 34.24C145.337 34.24 144.464 34.02 143.704 33.58C142.944 33.1267 142.344 32.5067 141.904 31.72C141.477 30.9333 141.264 30.0267 141.264 29C141.264 27.9733 141.484 27.0667 141.924 26.28C142.377 25.4933 142.991 24.88 143.764 24.44C144.551 23.9867 145.451 23.76 146.464 23.76C147.344 23.76 148.151 23.9933 148.884 24.46C149.631 24.9133 150.224 25.5867 150.664 26.48C151.117 27.36 151.344 28.4333 151.344 29.7H143.764L144.004 29.46C144.004 29.9533 144.124 30.3867 144.364 30.76C144.617 31.12 144.937 31.4 145.324 31.6C145.724 31.7867 146.151 31.88 146.604 31.88C147.151 31.88 147.597 31.7667 147.944 31.54C148.291 31.3 148.557 30.9933 148.744 30.62L151.104 31.54C150.824 32.1 150.457 32.5867 150.004 33C149.564 33.4 149.037 33.7067 148.424 33.92C147.811 34.1333 147.111 34.24 146.324 34.24ZM144.144 27.98L143.904 27.74H148.724L148.504 27.98C148.504 27.5 148.391 27.12 148.164 26.84C147.937 26.5467 147.657 26.3333 147.324 26.2C147.004 26.0667 146.691 26 146.384 26C146.077 26 145.751 26.0667 145.404 26.2C145.057 26.3333 144.757 26.5467 144.504 26.84C144.264 27.12 144.144 27.5 144.144 27.98Z" fill="#1E7594"/>
</svg>
