<svg width="212" height="262" viewBox="0 0 212 262" fill="none" xmlns="http://www.w3.org/2000/svg">
<path d="M106 3C122.412 3 136.458 8.77866 147.965 20.2852C159.471 31.7917 165.25 45.8384 165.25 62.25C165.25 68.3728 164.375 74.2036 162.607 79.7266C161.41 83.47 159.902 87.0621 158.086 90.5H168.5C172.797 90.5 176.541 91.9864 179.527 94.9727C182.514 97.9589 184 101.703 184 106C184 110.297 182.514 114.041 179.527 117.027C176.541 120.014 172.797 121.5 168.5 121.5H152.364C155.299 129.619 159.798 138.722 165.91 148.821C172.867 160.316 183.379 171.832 197.562 183.345C201.008 186.102 203.772 189.443 205.839 193.347C207.952 197.338 209 201.677 209 206.312V231C209 238.677 206.231 245.323 200.777 250.777C195.323 256.231 188.677 259 181 259H31C23.323 259 16.6766 256.231 11.2227 250.777C5.7687 245.323 3 238.677 3 231V206.312C3 201.677 4.04804 197.338 6.16113 193.347C8.22797 189.443 10.9924 186.102 14.4385 183.345C28.6209 171.832 39.1326 160.316 46.0898 148.821C52.2024 138.722 56.7008 129.619 59.6357 121.5H43.5C39.2028 121.5 35.4589 120.014 32.4727 117.027C29.4864 114.041 28 110.297 28 106C28 101.703 29.4864 97.9589 32.4727 94.9727C35.4589 91.9864 39.2028 90.5 43.5 90.5H53.9141C52.0978 87.0621 50.5905 83.47 49.3926 79.7266C47.6253 74.2036 46.75 68.3728 46.75 62.25C46.75 45.8384 52.5287 31.7917 64.0352 20.2852C75.5417 8.77866 89.5884 3 106 3ZM92.0547 121.5C88.9079 132.793 83.2661 145.974 75.207 161.011C66.5885 177.092 52.7972 192.559 34 207.452V228H178V207.452C159.203 192.559 145.411 177.092 136.793 161.011C128.734 145.974 123.092 132.793 119.945 121.5H92.0547ZM106 34C98.0242 34 91.3976 36.7195 85.9336 42.1836C80.4695 47.6477 77.75 54.2742 77.75 62.25C77.75 70.2258 80.4695 76.8524 85.9336 82.3164C91.3976 87.7805 98.0242 90.5 106 90.5C113.976 90.5 120.602 87.7805 126.066 82.3164C131.53 76.8524 134.25 70.2258 134.25 62.25C134.25 54.2742 131.53 47.6477 126.066 42.1836C120.602 36.7195 113.976 34 106 34Z" fill="#F58E39" stroke="white" stroke-width="6"/>
</svg>
