<svg width="350" height="281" viewBox="0 0 350 281" fill="none" xmlns="http://www.w3.org/2000/svg">
<path d="M182.31 221.61C187.124 221.61 191.03 225.516 191.03 230.33V232.94H191.04V234.94C191.04 243.136 197.685 249.78 205.88 249.78H229.36C237.175 249.78 243.51 256.116 243.51 263.931C243.51 271.745 237.175 278.08 229.36 278.08H116.65C108.836 278.08 102.5 271.745 102.5 263.931C102.5 256.116 108.836 249.78 116.65 249.78H140.13C148.325 249.78 154.97 243.136 154.97 234.94V230.33C154.97 225.516 158.876 221.61 163.69 221.61H182.31Z" fill="#ED1B76" stroke="#ED1B76" stroke-width="4"/>
<path d="M182.979 203.14L183.394 203.15C187.646 203.366 191.029 206.884 191.029 211.189V219.489C191.029 223.934 187.424 227.54 182.979 227.54H163.02C158.575 227.54 154.97 223.934 154.97 219.489V211.189C154.97 206.745 158.575 203.14 163.02 203.14H182.979Z" fill="#ED1B76" stroke="#ED1B76" stroke-width="4"/>
<path d="M182.78 131.24V237.26H163.23V131.24H182.78Z" fill="#ED1B76" stroke="#ED1B76" stroke-width="4"/>
<path d="M175.67 45.1284L202.001 67.6812L203.486 68.9526L202.248 70.4663C189.208 86.3998 183.364 108.206 182.68 134.352L182.671 134.702L182.543 135.028L179.543 142.708L179.046 143.98H170.34V143.89H166.975L166.478 142.618L163.478 134.938L163.351 134.612L163.341 134.262C162.657 108.116 156.812 86.31 143.772 70.3765L142.534 68.8628L144.02 67.5913L170.34 45.0396V40.5229L172.956 42.7954L175.67 40.4585V45.1284Z" fill="#ED1B76" stroke="#ED1B76" stroke-width="4"/>
<path d="M197.36 35.04V49.4697C197.36 57.6653 190.714 64.2997 182.53 64.2998H163.49C155.295 64.2998 148.66 57.6533 148.66 49.4697V35.04H197.36Z" fill="#ED1B76" stroke="#ED1B76" stroke-width="4"/>
<path d="M183.78 14.6401C188.717 14.6403 193.247 17.2544 195.735 21.4399H195.814L196.356 22.5825C197.995 26.0345 201.482 28.2396 205.31 28.2397H299.109V42.9302H47.3398V28.2397H141.14C144.968 28.2397 148.454 26.0345 150.093 22.5825C152.394 17.7345 157.288 14.6401 162.66 14.6401H183.78Z" fill="#ED1B76" stroke="#ED1B76" stroke-width="4"/>
<path d="M49.3193 24.3501C55.7938 24.3501 61.0399 29.5954 61.04 36.0698C61.04 42.5444 55.7939 47.7905 49.3193 47.7905C42.8449 47.7904 37.5996 42.5443 37.5996 36.0698C37.5998 29.5955 42.845 24.3502 49.3193 24.3501Z" fill="#ED1B76" stroke="#ED1B76" stroke-width="4"/>
<path d="M98.6152 101.11L97.8945 103.655C95.9558 110.5 89.7567 116.199 81.4688 120.147C73.1207 124.125 62.342 126.49 50.6299 126.49C38.9177 126.49 28.1391 124.125 19.791 120.147C11.5031 116.199 5.30495 110.5 3.36621 103.655L2.64453 101.11H98.6152Z" fill="#ED1B76" stroke="#ED1B76" stroke-width="4"/>
<path d="M45.2072 33.7466L51.4284 36.7768L15.604 110.326L9.38279 107.295L45.2072 33.7466Z" fill="#ED1B76" stroke="#ED1B76" stroke-width="4"/>
<path d="M52.5278 33.7096L88.3522 107.258L82.1311 110.289L46.3066 36.7399L52.5278 33.7096Z" fill="#ED1B76" stroke="#ED1B76" stroke-width="4"/>
<path d="M52.2998 41.3599V109H45.3799V41.3599H52.2998Z" fill="#ED1B76" stroke="#ED1B76" stroke-width="4"/>
<path d="M298.069 24.3501C304.544 24.3501 309.79 29.5954 309.79 36.0698C309.79 42.5444 304.544 47.7905 298.069 47.7905C291.595 47.7904 286.35 42.5443 286.35 36.0698C286.35 29.5955 291.595 24.3502 298.069 24.3501Z" fill="#ED1B76" stroke="#ED1B76" stroke-width="4"/>
<path d="M347.354 101.11L346.634 103.655C344.695 110.5 338.496 116.199 330.208 120.147C321.86 124.125 311.081 126.49 299.369 126.49C287.657 126.49 276.878 124.125 268.53 120.147C260.242 116.199 254.044 110.5 252.105 103.655L251.384 101.11H347.354Z" fill="#ED1B76" stroke="#ED1B76" stroke-width="4"/>
<path d="M293.976 33.7544L300.197 36.7846L264.373 110.333L258.151 107.303L293.976 33.7544Z" fill="#ED1B76" stroke="#ED1B76" stroke-width="4"/>
<path d="M301.27 33.692L337.094 107.241L330.873 110.271L295.049 36.7223L301.27 33.692Z" fill="#ED1B76" stroke="#ED1B76" stroke-width="4"/>
<path d="M301.04 41.3599V109H294.13V41.3599H301.04Z" fill="#ED1B76" stroke="#ED1B76" stroke-width="4"/>
<path d="M173.689 2C177.155 2 180.132 3.89855 182.171 6.65039C184.21 9.40231 185.41 13.1103 185.41 17.1201C185.41 21.1252 184.209 24.8324 182.171 27.585C180.133 30.3373 177.156 32.2402 173.689 32.2402C170.224 32.2401 167.248 30.3415 165.209 27.5898C163.17 24.8379 161.97 21.1299 161.97 17.1201C161.97 13.1103 163.17 9.40232 165.209 6.65039C167.248 3.89869 170.224 2.00009 173.689 2Z" fill="#ED1B76" stroke="#ED1B76" stroke-width="4"/>
</svg>
