<svg width="361" height="289" viewBox="0 0 361 289" fill="none" xmlns="http://www.w3.org/2000/svg">
<path d="M178.98 4C183.227 4 186.749 6.33005 189.068 9.45996C190.639 11.5799 191.747 14.1612 192.3 16.9717C196.268 17.7939 199.788 20.1078 202.115 23.4404H202.37L203.454 25.7246C204.761 28.4786 207.545 30.2401 210.601 30.2402H293.79C296.262 27.8333 299.638 26.3506 303.361 26.3506C310.94 26.3507 317.081 32.4912 317.081 40.0703C317.081 43.298 315.966 46.2637 314.102 48.6064L340.649 103.11H355.291L353.85 108.2C351.687 115.835 344.895 121.886 336.36 125.952C327.705 130.076 316.626 132.49 304.661 132.49C292.697 132.49 281.617 130.076 272.962 125.952C264.427 121.886 257.635 115.835 255.473 108.2L254.03 103.11H265.208L291.599 48.9297H204.65V53.4697C204.65 57.3516 203.335 60.9236 201.129 63.7695L208.593 70.1621L211.563 72.7061L209.086 75.7334C196.923 90.5959 191.103 110.863 190.071 135.436V205.304C194.761 206.153 198.32 210.255 198.32 215.189V223.489C198.32 225.445 197.759 227.269 196.792 228.813C197.762 230.425 198.321 232.312 198.321 234.33V234.94H198.331V238.94C198.331 246.031 204.08 251.78 211.171 251.78H234.651C243.57 251.78 250.801 259.012 250.801 267.931C250.801 276.85 243.57 284.08 234.651 284.08H121.941C113.022 284.08 105.791 276.85 105.791 267.931C105.791 259.012 113.022 251.78 121.941 251.78H145.421C152.512 251.78 158.261 246.031 158.261 238.94V234.33C158.261 232.313 158.82 230.426 159.789 228.814C158.822 227.27 158.261 225.445 158.261 223.489V215.189C158.261 210.251 161.826 206.146 166.521 205.302V135.138C165.465 110.659 159.645 90.4642 147.516 75.6436L145.038 72.6172L148.009 70.0723L155.429 63.7139C153.248 60.8753 151.951 57.3229 151.951 53.4697V48.9297H65.5088L91.8984 103.11H106.552L105.109 108.2C102.947 115.835 96.1546 121.886 87.6201 125.952C78.9652 130.076 67.8854 132.49 55.9209 132.49C43.9564 132.49 32.8766 130.076 24.2217 125.952C15.6873 121.886 8.89494 115.835 6.73242 108.2L5.29102 103.11H16.4365L43.334 47.8867C41.7942 45.669 40.8916 42.9756 40.8916 40.0703C40.8916 32.4912 47.0322 26.3506 54.6113 26.3506C58.3351 26.3506 61.711 27.8332 64.1826 30.2402H146.431C149.487 30.2402 152.27 28.4787 153.577 25.7246C155.883 20.8663 160.465 17.5479 165.695 16.7998C166.259 14.056 167.354 11.5367 168.893 9.45996C171.212 6.33009 174.734 4.00009 178.98 4ZM308.331 103.11H328.503L308.331 61.6953V103.11ZM277.355 103.11H297.421V61.9131L277.355 103.11ZM59.5908 103.11H79.752L59.5908 61.7168V103.11ZM28.583 103.11H48.6709V61.8691L28.583 103.11Z" fill="#FD5B4F" stroke="white" stroke-width="8"/>
<path d="M178.98 6.5C182.251 6.5 185.091 8.29097 187.06 10.9482C188.698 13.1597 189.782 16.0249 190.101 19.1797C194.549 19.5213 198.544 22.0593 200.741 25.9404H200.789L201.196 26.7969C202.918 30.4232 206.58 32.7401 210.601 32.7402H294.87C296.927 30.3591 299.966 28.8506 303.361 28.8506C309.56 28.8507 314.581 33.872 314.581 40.0703C314.581 43.2604 313.248 46.1362 311.112 48.1787L339.087 105.61H351.984L351.444 107.519C349.562 114.166 343.511 119.776 335.285 123.695C327.014 127.636 316.31 129.99 304.661 129.99C293.012 129.99 282.308 127.636 274.037 123.695C265.811 119.776 259.761 114.166 257.878 107.519L257.337 105.61H266.771L295.032 47.5879C294.703 47.2229 294.397 46.8359 294.117 46.4297H202.15V53.4697C202.15 57.6311 200.376 61.3752 197.546 63.9922L206.967 72.0605L208.081 73.0146L207.151 74.1494C194.451 89.6685 188.554 110.683 187.557 135.74H187.571V207.64H188.271C192.439 207.64 195.82 211.021 195.82 215.189V223.489C195.82 225.548 194.995 227.413 193.658 228.775C195.001 230.239 195.821 232.189 195.821 234.33V237.44H195.831V238.94C195.831 247.412 202.699 254.28 211.171 254.28H234.651C242.19 254.28 248.301 260.392 248.301 267.931C248.301 275.469 242.19 281.58 234.651 281.58H121.941C114.403 281.58 108.291 275.469 108.291 267.931C108.291 260.392 114.403 254.28 121.941 254.28H145.421C153.892 254.28 160.761 247.412 160.761 238.94V234.33C160.761 232.189 161.581 230.238 162.923 228.775C161.586 227.413 160.761 225.547 160.761 223.489V215.189C160.761 211.021 164.142 207.64 168.311 207.64H169.021V135.74H169.049C168.062 110.643 162.166 89.5972 149.45 74.0596L148.521 72.9248L149.635 71.9707L159.002 63.9443C156.201 61.3278 154.451 57.6014 154.451 53.4697V46.4297H63.8545C63.4178 47.0634 62.9168 47.6485 62.3623 48.1787L90.3359 105.61H103.245L102.704 107.519C100.821 114.166 94.7712 119.776 86.5449 123.695C78.2735 127.636 67.5701 129.99 55.9209 129.99C44.2717 129.99 33.5682 127.636 25.2969 123.695C17.0707 119.776 11.0205 114.166 9.1377 107.519L8.59766 105.61H18L46.2676 47.5713C44.4798 45.5839 43.3917 42.955 43.3916 40.0703C43.3916 33.8719 48.4129 28.8506 54.6113 28.8506C58.0063 28.8506 61.0454 30.359 63.1025 32.7402H146.431C150.452 32.7402 154.114 30.4234 155.836 26.7969C158.042 22.1495 162.719 19.1746 167.864 19.1416C168.188 16.0019 169.269 13.1508 170.901 10.9482C172.87 8.29099 175.71 6.50009 178.98 6.5ZM305.831 51.0137V105.61H332.502L305.9 50.9971C305.877 51.0024 305.854 51.0085 305.831 51.0137ZM273.356 105.61H299.921V51.0723L273.356 105.61ZM57.0908 51.0117V105.61H83.752L57.1494 50.998C57.1299 51.0026 57.1104 51.0073 57.0908 51.0117ZM24.585 105.61H51.1709V51.0264L24.585 105.61Z" fill="#FD5B4F" stroke="#FD5B4F" stroke-width="3"/>
</svg>
