<svg width="353" height="283" viewBox="0 0 353 283" fill="none" xmlns="http://www.w3.org/2000/svg">
<path d="M183.632 222.11C188.723 222.11 192.853 226.239 192.853 231.33V233.44H192.863V235.94C192.863 243.86 199.283 250.28 207.203 250.28H230.683C238.774 250.28 245.333 256.84 245.333 264.931C245.332 273.021 238.774 279.58 230.683 279.58H117.973C109.883 279.58 103.323 273.021 103.323 264.931C103.323 256.84 109.882 250.28 117.973 250.28H141.453C149.372 250.28 155.792 243.86 155.792 235.94V231.33C155.793 226.239 159.923 222.11 165.013 222.11H183.632Z" fill="#4DD5BC" stroke="#4DD5BC" stroke-width="5"/>
<path d="M184.302 203.64C189.023 203.64 192.852 207.469 192.852 212.189V220.489C192.852 225.21 189.023 229.04 184.302 229.04H164.342C159.622 229.04 155.792 225.21 155.792 220.489V212.189C155.793 207.469 159.622 203.64 164.342 203.64H184.302Z" fill="#4DD5BC" stroke="#4DD5BC" stroke-width="5"/>
<path d="M184.603 131.74V238.76H164.053V131.74H184.603Z" fill="#4DD5BC" stroke="#4DD5BC" stroke-width="5"/>
<path d="M177.492 45.8979L203.648 68.3013L205.506 69.8911L203.957 71.7827C191.015 87.597 185.184 109.278 184.502 135.365L184.49 135.802L184.331 136.209L181.331 143.889L180.71 145.48H171.162V145.39H167.955L167.334 143.799L164.334 136.12L164.175 135.712L164.163 135.275C163.481 109.188 157.651 87.5072 144.708 71.6929L143.16 69.8013L145.016 68.2114L171.162 45.8101V40.4263L174.279 43.1353L177.492 40.3677V45.8979Z" fill="#4DD5BC" stroke="#4DD5BC" stroke-width="5"/>
<path d="M199.183 35.54V50.4697C199.183 58.9417 192.312 65.7997 183.853 65.7998H164.812C156.341 65.7998 149.482 58.9292 149.482 50.4697V35.54H199.183Z" fill="#4DD5BC" stroke="#4DD5BC" stroke-width="5"/>
<path d="M185.103 15.1401C190.12 15.1403 194.734 17.7464 197.34 21.9399H197.454L198.131 23.3677C199.687 26.6451 202.997 28.7396 206.632 28.7397H300.932V44.4302H48.1626V28.7397H142.462C146.097 28.7397 149.409 26.6452 150.964 23.3677C153.349 18.3454 158.418 15.1401 163.983 15.1401H185.103Z" fill="#4DD5BC" stroke="#4DD5BC" stroke-width="5"/>
<path d="M50.6426 24.8501C57.3932 24.8501 62.8631 30.3192 62.8633 37.0698C62.8633 43.8205 57.3933 49.2905 50.6426 49.2905C43.892 49.2904 38.4229 43.8204 38.4229 37.0698C38.423 30.3193 43.8921 24.8502 50.6426 24.8501Z" fill="#4DD5BC" stroke="#4DD5BC" stroke-width="5"/>
<path d="M100.599 101.61L99.6978 104.792C97.703 111.834 91.3566 117.621 83.0073 121.599C74.5825 125.613 63.728 127.99 51.9526 127.99C40.1774 127.99 29.3237 125.613 20.8989 121.599C12.5495 117.621 6.20229 111.834 4.20752 104.792L3.30615 101.61H100.599Z" fill="#4DD5BC" stroke="#4DD5BC" stroke-width="5"/>
<path d="M46.2999 34.0781L53.4201 37.5462L17.1578 111.994L10.0376 108.526L46.2999 34.0781Z" fill="#4DD5BC" stroke="#4DD5BC" stroke-width="5"/>
<path d="M54.0811 34.0412L90.3435 108.489L83.2233 111.957L46.9609 37.5093L54.0811 34.0412Z" fill="#4DD5BC" stroke="#4DD5BC" stroke-width="5"/>
<path d="M54.1226 41.8599V110.5H46.2026V41.8599H54.1226Z" fill="#4DD5BC" stroke="#4DD5BC" stroke-width="5"/>
<path d="M299.393 24.8501C306.143 24.8501 311.613 30.3192 311.613 37.0698C311.613 43.8205 306.143 49.2905 299.393 49.2905C292.642 49.2904 287.173 43.8204 287.173 37.0698C287.173 30.3193 292.642 24.8502 299.393 24.8501Z" fill="#4DD5BC" stroke="#4DD5BC" stroke-width="5"/>
<path d="M349.339 101.61L348.438 104.792C346.443 111.834 340.096 117.621 331.747 121.599C323.322 125.613 312.468 127.99 300.692 127.99C288.917 127.99 278.063 125.613 269.639 121.599C261.289 117.621 254.942 111.834 252.947 104.792L252.046 101.61H349.339Z" fill="#4DD5BC" stroke="#4DD5BC" stroke-width="5"/>
<path d="M295.068 34.0859L302.188 37.5541L265.926 112.002L258.806 108.534L295.068 34.0859Z" fill="#4DD5BC" stroke="#4DD5BC" stroke-width="5"/>
<path d="M302.823 34.0236L339.086 108.471L331.965 111.939L295.703 37.4917L302.823 34.0236Z" fill="#4DD5BC" stroke="#4DD5BC" stroke-width="5"/>
<path d="M302.863 41.8599V110.5H294.953V41.8599H302.863Z" fill="#4DD5BC" stroke="#4DD5BC" stroke-width="5"/>
<path d="M175.012 2.5C178.673 2.5 181.786 4.5063 183.895 7.35254C186.004 10.199 187.233 14.0141 187.233 18.1201C187.233 22.2217 186.003 26.0358 183.895 28.8828C181.787 31.7293 178.675 33.7402 175.012 33.7402C171.351 33.7401 168.239 31.733 166.13 28.8867C164.021 26.0403 162.793 22.2261 162.792 18.1201C162.792 14.0141 164.021 10.199 166.13 7.35254C168.239 4.50648 171.352 2.50009 175.012 2.5Z" fill="#4DD5BC" stroke="#4DD5BC" stroke-width="5"/>
</svg>
