<svg width="40" height="30" viewBox="0 0 40 30" fill="none" xmlns="http://www.w3.org/2000/svg">
<path d="M2 12.7279C0.89543 12.7279 0 13.6234 0 14.7279C0 15.8325 0.89543 16.7279 2 16.7279V14.7279V12.7279ZM39.4142 16.1421C40.1953 15.3611 40.1953 14.0948 39.4142 13.3137L26.6863 0.5858C25.9052 -0.195249 24.6389 -0.195249 23.8579 0.5858C23.0768 1.36685 23.0768 2.63318 23.8579 3.41423L35.1716 14.7279L23.8579 26.0416C23.0768 26.8227 23.0768 28.089 23.8579 28.8701C24.6389 29.6511 25.9052 29.6511 26.6863 28.8701L39.4142 16.1421ZM2 14.7279V16.7279H38V14.7279V12.7279H2V14.7279Z" fill="#303131"/>
</svg>
