<svg width="35" height="15" viewBox="0 0 35 15" fill="none" xmlns="http://www.w3.org/2000/svg">
<path d="M1 6.36401C0.447715 6.36401 0 6.81173 0 7.36401C0 7.9163 0.447715 8.36401 1 8.36401V7.36401V6.36401ZM34.7071 8.07112C35.0976 7.6806 35.0976 7.04743 34.7071 6.65691L28.3431 0.292946C27.9526 -0.0975785 27.3195 -0.0975785 26.9289 0.292946C26.5384 0.68347 26.5384 1.31664 26.9289 1.70716L32.5858 7.36401L26.9289 13.0209C26.5384 13.4114 26.5384 14.0446 26.9289 14.4351C27.3195 14.8256 27.9526 14.8256 28.3431 14.4351L34.7071 8.07112ZM1 7.36401V8.36401H34V7.36401V6.36401H1V7.36401Z" fill="#303131"/>
</svg>
